<svg xmlns="http://www.w3.org/2000/svg" fill="none" viewBox="0 0 256 256">
  <path class="planet-glow" d="M128,216a88,88,0,1,1,88-88A88.1,88.1,0,0,1,128,216Z" fill="#D0FF00" opacity="0.18" />
  <path class="planet-stroke" d="M228.66,139.34a8,8,0,0,1-11.32,0,95.53,95.53,0,0,0-68.32-26.65V56.51A96,96,0,0,0,32,152c0,42.06,27.17,78.29,66.66,91a8,8,0,0,1-4.88,15.24C45.34,242.34,16,199.78,16,152A112.06,112.06,0,0,1,141,40.54V16a8,8,0,0,1,16,0V40.54A111.47,111.47,0,0,1,228.66,128,8,8,0,0,1,228.66,139.34ZM128,72a56,56,0,1,0,56,56A56.06,56.06,0,0,0,128,72Zm0,96a40,40,0,1,1,40-40A40,40,0,0,1,128,168Z" fill="#D0FF00" />
  <style>
    .planet-stroke { fill: #52a300; }
    .planet-glow { fill: #52a300; }
    @media (prefers-color-scheme: dark) {
      .planet-stroke { fill: #D0FF00; }
      .planet-glow { fill: #D0FF00; }
    }
  </style>
</svg>
